HIERARCHY
ROOT hip
{
  OFFSET 40.4922 85.2575 -94.5678
  CHANNELS 6 Xposition Yposition Zposition Zrotation Xrotation Yrotation
  JOINT abdomen
  {
    OFFSET 0 20.6881 -0.73152
    CHANNELS 3 Zrotation Xrotation Yrotation
    JOINT chest
    {
      OFFSET 0 11.7043 -0.48768
      CHANNELS 3 Zrotation Xrotation Yrotation
      JOINT neck
      {
        OFFSET 0 22.1894 -2.19456
        CHANNELS 3 Zrotation Xrotation Yrotation
        JOINT head
        {
          OFFSET -0.24384 7.07133 1.2192
          CHANNELS 3 Zrotation Xrotation Yrotation
          JOINT leftEye
          {
            OFFSET 4.14528 8.04674 8.04672
            CHANNELS 3 Zrotation Xrotation Yrotation
            End Site
            {
              OFFSET 1 0 0
            }
          }
          JOINT rightEye
          {
            OFFSET -3.6576 8.04674 8.04672
            CHANNELS 3 Zrotation Xrotation Yrotation
            End Site
            {
              OFFSET 1 0 0
            }
          }
        }
      }
      JOINT rCollar
      {
        OFFSET -2.68224 19.2634 -4.8768
        CHANNELS 3 Zrotation Xrotation Yrotation
        JOINT rShldr
        {
          OFFSET -8.77824 -1.95073 1.46304
          CHANNELS 3 Zrotation Xrotation Yrotation
          JOINT rForeArm
          {
            OFFSET -28.1742 -1.7115 0.48768
            CHANNELS 3 Zrotation Xrotation Yrotation
            JOINT rHand
            {
              OFFSET -22.5879 0.773209 7.07136
              CHANNELS 3 Zrotation Xrotation Yrotation
              JOINT rThumb1
              {
                OFFSET -1.2192 -0.487915 3.41376
                CHANNELS 3 Zrotation Xrotation Yrotation
                JOINT rThumb2
                {
                  OFFSET -3.37035 -0.52449 3.41376
                  CHANNELS 3 Zrotation Xrotation Yrotation
                  End Site
                  {
                    OFFSET -1.78271 -1.18214 1.43049
                  }
                }
              }
              JOINT rIndex1
              {
                OFFSET -7.75947 0.938293 5.60832
                CHANNELS 3 Zrotation Xrotation Yrotation
                JOINT rIndex2
                {
                  OFFSET -2.54057 -0.884171 1.56538
                  CHANNELS 3 Zrotation Xrotation Yrotation
                  End Site
                  {
                    OFFSET -1.62519 -0.234802 1.16502
                  }
                }
              }
              JOINT rMid1
              {
                OFFSET -8.24714 1.18213 3.41376
                CHANNELS 3 Zrotation Xrotation Yrotation
                JOINT rMid2
                {
                  OFFSET -3.10165 -0.590103 1.0647
                  CHANNELS 3 Zrotation Xrotation Yrotation
                  End Site
                  {
                    OFFSET -2.48547 -0.328903 0.83742
                  }
                }
              }
              JOINT rRing1
              {
                OFFSET -8.82822 0.546677 1.51678
                CHANNELS 3 Zrotation Xrotation Yrotation
                JOINT rRing2
                {
                  OFFSET -2.60934 -0.819778 -0.0198488
                  CHANNELS 3 Zrotation Xrotation Yrotation
                  End Site
                  {
                    OFFSET -2.33842 -0.294052 0.168128
                  }
                }
              }
              JOINT rPinky1
              {
                OFFSET -8.27202 -0.0477905 -0.4584
                CHANNELS 3 Zrotation Xrotation Yrotation
                JOINT rPinky2
                {
                  OFFSET -1.82734 -0.647385 -0.700984
                  CHANNELS 3 Zrotation Xrotation Yrotation
                  End Site
                  {
                    OFFSET -1.69225 -0.51767 -0.607171
                  }
                }
              }
            }
          }
        }
      }
      JOINT lCollar
      {
        OFFSET 2.68224 19.2634 -4.8768
        CHANNELS 3 Zrotation Xrotation Yrotation
        JOINT lShldr
        {
          OFFSET 8.77824 -1.95073 1.46304
          CHANNELS 3 Zrotation Xrotation Yrotation
          JOINT lForeArm
          {
            OFFSET 28.1742 -1.7115 0.48768
            CHANNELS 3 Zrotation Xrotation Yrotation
            JOINT lHand
            {
              OFFSET 22.5879 0.773209 7.07136
              CHANNELS 3 Zrotation Xrotation Yrotation
              JOINT lThumb1
              {
                OFFSET 1.2192 -0.487915 3.41376
                CHANNELS 3 Zrotation Xrotation Yrotation
                JOINT lThumb2
                {
                  OFFSET 3.37035 -0.52449 3.41376
                  CHANNELS 3 Zrotation Xrotation Yrotation
                  End Site
                  {
                    OFFSET 1.78271 -1.18214 1.43049
                  }
                }
              }
              JOINT lIndex1
              {
                OFFSET 7.75947 0.938293 5.60832
                CHANNELS 3 Zrotation Xrotation Yrotation
                JOINT lIndex2
                {
                  OFFSET 2.54057 -0.884171 1.56538
                  CHANNELS 3 Zrotation Xrotation Yrotation
                  End Site
                  {
                    OFFSET 1.62519 -0.234802 1.16502
                  }
                }
              }
              JOINT lMid1
              {
                OFFSET 8.24714 1.18213 3.41376
                CHANNELS 3 Zrotation Xrotation Yrotation
                JOINT lMid2
                {
                  OFFSET 3.10165 -0.590103 1.0647
                  CHANNELS 3 Zrotation Xrotation Yrotation
                  End Site
                  {
                    OFFSET 2.48547 -0.328903 0.83742
                  }
                }
              }
              JOINT lRing1
              {
                OFFSET 8.82822 0.546677 1.51678
                CHANNELS 3 Zrotation Xrotation Yrotation
                JOINT lRing2
                {
                  OFFSET 2.60934 -0.819778 -0.0198488
                  CHANNELS 3 Zrotation Xrotation Yrotation
                  End Site
                  {
                    OFFSET 2.33842 -0.294052 0.168128
                  }
                }
              }
              JOINT lPinky1
              {
                OFFSET 8.27202 -0.0477905 -0.4584
                CHANNELS 3 Zrotation Xrotation Yrotation
                JOINT lPinky2
                {
                  OFFSET 1.82734 -0.647385 -0.700984
                  CHANNELS 3 Zrotation Xrotation Yrotation
                  End Site
                  {
                    OFFSET 1.69225 -0.51767 -0.607171
                  }
                }
              }
            }
          }
        }
      }
    }
  }
  JOINT rButtock
  {
    OFFSET -8.77824 4.35084 1.2192
    CHANNELS 3 Zrotation Xrotation Yrotation
    JOINT rThigh
    {
      OFFSET 0 -1.70687 -2.19456
      CHANNELS 3 Zrotation Xrotation Yrotation
      JOINT rShin
      {
        OFFSET 0 -36.8199 0.73152
        CHANNELS 3 Zrotation Xrotation Yrotation
        JOINT rFoot
        {
          OFFSET 0.73152 -45.1104 -5.12064
          CHANNELS 3 Zrotation Xrotation Yrotation
          End Site
          {
            OFFSET -1.1221 -3.69964 12.103
          }
        }
      }
    }
  }
  JOINT lButtock
  {
    OFFSET 8.77824 4.35084 1.2192
    CHANNELS 3 Zrotation Xrotation Yrotation
    JOINT lThigh
    {
      OFFSET 0 -1.70687 -2.19456
      CHANNELS 3 Zrotation Xrotation Yrotation
      JOINT lShin
      {
        OFFSET 0 -36.8199 0.73152
        CHANNELS 3 Zrotation Xrotation Yrotation
        JOINT lFoot
        {
          OFFSET -0.73152 -45.1104 -5.12064
          CHANNELS 3 Zrotation Xrotation Yrotation
          End Site
          {
            OFFSET 1.1221 -3.69964 12.103
          }
        }
      }
    }
  }
}
MOTION
Frames:	6
Frame Time:	0.00833333
49.5228 85.5069 130.226 -1.70035 0.00694335 0.032328 2.23592 -0.000458468 0.0604459 0.615842 0.00897659 0.106598 1.95331e-014 -2.38542e-015 2.48481e-016 5.86819e-014 3.18055e-015 6.21202e-016 -0 0 0 -0 0 0 9.68986e-015 1.98008e-017 2.48481e-016 2.08359e-013 1.86361e-017 3.77691e-015 3.53265e-012 -1.04004e-012 -2.8625e-014 4.0264e-011 1.11523e-012 5.34333e-013 9.49953e-011 1.63066e-013 1.09729e-012 1.64037e-010 2.83069e-013 1.90436e-012 9.49992e-011 1.62208e-013 1.09093e-012 7.73091 5.47488 0.417314 9.49932e-011 1.62407e-013 1.10365e-012 2.90554 0.965183 0.102902 9.49976e-011 1.63103e-013 1.10604e-012 10.2786 0.731801 0.0259123 9.49889e-011 1.64991e-013 1.11956e-012 2.22167 -0.733487 -0.20892 9.69229e-015 1.86361e-017 -1.49089e-016 2.0325e-013 1.30452e-016 1.98785e-015 3.5088e-012 1.06946e-012 3.49861e-014 4.02841e-011 -9.90072e-013 5.02528e-013 9.49897e-011 1.72646e-013 1.11956e-012 1.64039e-010 2.95792e-013 1.9298e-012 9.49833e-011 1.72545e-013 1.14182e-012 -7.73091 5.47488 -0.417314 9.49899e-011 1.72744e-013 1.12592e-012 -2.90554 0.965183 -0.102902 9.49867e-011 1.72346e-013 1.11876e-012 -10.2786 0.731801 -0.0259123 9.50004e-011 1.75726e-013 1.11001e-012 -2.22167 -0.733487 0.20892 -2.03217e-016 0 -3.88251e-019 2.21217 -7.80164 -0.22428 0.00521784 8.55958 0.135847 -0.549276 -0.766544 0.0462844 2.03217e-016 0 3.88251e-019 1.18456 -1.92859 -0.00255167 0.00908651 -2.07858 0.0749412 0.513087 3.99847 -0.140473 
49.9691 84.774 128.218 -1.41181 1.7576 0.796567 1.50999 -3.91541 0.521196 0.242453 0.457661 0.262935 -0.207521 4.95322 -0.779394 1.19573 -7.51185 -1.28801 -0 0 0 -0 0 0 1.61365e-014 -2.66673e-014 1.87308e-014 22.616 7.27304 -2.62465 -3.74636 -1.61785 5.93986 0.00593379 1.71571 0.240741 1.01927e-010 -6.27801e-011 -3.50486e-011 1.76551e-010 -1.08752e-010 -6.15235e-011 1.01935e-010 -6.27825e-011 -3.50522e-011 7.73091 5.47488 0.417314 1.01929e-010 -6.27827e-011 -3.50402e-011 2.90554 0.965183 0.102902 1.01935e-010 -6.2782e-011 -3.50393e-011 10.2786 0.731801 0.0259123 1.01922e-010 -6.27805e-011 -3.50316e-011 2.22167 -0.733487 -0.20892 1.6101e-014 -2.66663e-014 1.83752e-014 -20.8616 12.5209 -0.83853 2.80797 -1.08388 -4.57226 -0.022871 -3.35584 0.468715 -8.01822e-011 -2.17314e-010 1.20922e-010 -1.40654e-010 -3.7833e-010 2.08925e-010 -8.01867e-011 -2.17314e-010 1.20941e-010 -7.73091 5.47488 -0.417314 -8.01812e-011 -2.17313e-010 1.20926e-010 -2.90554 0.965183 -0.102902 -8.01869e-011 -2.17312e-010 1.20921e-010 -10.2786 0.731801 -0.0259123 -8.01736e-011 -2.17309e-010 1.20913e-010 -2.22167 -0.733487 0.20892 -2.03217e-016 0 -3.88251e-019 2.49065 -7.57781 1.72349 0.00534043 9.03324 0.153534 -1.0065 -5.8269 -4.98832 2.03217e-016 0 3.88251e-019 1.09028 -2.29559 -0.345815 0.00705498 -1.21929 0.0427355 0.518557 4.40927 0.0435324 
50.036 84.7682 128.27 -1.16011 3.60913 1.60324 0.81235 -8.05764 1.01746 -0.151777 0.935207 0.428712 -0.282838 10.1862 -1.62262 2.08593 -15.4365 -2.72361 -0 0 0 -0 0 0 2.40451e-014 -5.86847e-014 3.92227e-014 47.2723 14.8973 -5.54999 -7.3411 -3.26816 12.2294 -0.00356407 3.54707 0.49845 1.04058e-010 -1.34308e-010 -7.37296e-011 1.80857e-010 -2.32699e-010 -1.29425e-010 1.04071e-010 -1.34313e-010 -7.37302e-011 7.73091 5.47488 0.417314 1.04065e-010 -1.34313e-010 -7.37189e-011 2.90554 0.965183 0.102902 1.04073e-010 -1.34312e-010 -7.37197e-011 10.2786 0.731801 0.0259123 1.04054e-010 -1.34312e-010 -7.37183e-011 2.22167 -0.733487 -0.20892 2.39692e-014 -5.86813e-014 3.89121e-014 -42.4791 25.7374 -1.86727 5.58615 -2.20515 -9.40647 0.0130336 -6.89868 0.969025 -2.70038e-010 -4.68433e-010 2.44465e-010 -4.70901e-010 -8.15365e-010 4.22445e-010 -2.7004e-010 -4.68432e-010 2.4448e-010 -7.73091 5.47488 -0.417314 -2.70036e-010 -4.6843e-010 2.44467e-010 -2.90554 0.965183 -0.102902 -2.70044e-010 -4.68429e-010 2.44464e-010 -10.2786 0.731801 -0.0259123 -2.70032e-010 -4.68426e-010 2.44457e-010 -2.22167 -0.733487 0.20892 -2.03217e-016 0 -3.88251e-019 2.77587 -7.33573 3.79721 0.00509011 9.53405 0.172272 -2.4714 -11.0494 -10.4626 2.03217e-016 0 3.88251e-019 0.991674 -2.68391 -0.710275 0.00601983 -0.311853 0.00917065 0.521829 4.89704 0.354829 
50.057 84.7719 128.304 -0.97531 5.25509 2.33374 0.250557 -11.7421 1.46981 -0.511672 1.35497 0.575745 -0.20653 14.8485 -2.40997 2.504 -22.4881 -4.14667 -0 0 0 -0 0 0 2.90298e-014 -8.00415e-014 5.56954e-014 69.9684 21.6289 -8.40628 -10.248 -4.6453 17.8731 -0.0256001 5.14676 0.724823 1.15791e-010 -1.88666e-010 -1.0734e-010 2.0158e-010 -3.26821e-010 -1.88379e-010 1.15807e-010 -1.88672e-010 -1.07338e-010 7.73091 5.47488 0.417314 1.15801e-010 -1.88673e-010 -1.07328e-010 2.90554 0.965183 0.102902 1.1581e-010 -1.88672e-010 -1.0733e-010 10.2786 0.731801 0.0259123 1.15787e-010 -1.88671e-010 -1.07334e-010 2.22167 -0.733487 -0.20892 2.89186e-014 -8.00361e-014 5.54236e-014 -61.2427 37.526 -3.09705 7.90976 -3.16893 -13.7357 0.0982776 -10.0648 1.42568 -4.30526e-010 -6.52287e-010 3.60526e-010 -7.50042e-010 -1.13558e-009 6.22915e-010 -4.30527e-010 -6.52286e-010 3.60538e-010 -7.73091 5.47488 -0.417314 -4.30523e-010 -6.52284e-010 3.60527e-010 -2.90554 0.965183 -0.102902 -4.30534e-010 -6.52281e-010 3.60526e-010 -10.2786 0.731801 -0.0259123 -4.30522e-010 -6.52278e-010 3.60519e-010 -2.22167 -0.733487 0.20892 -2.03217e-016 0 -3.88251e-019 3.00127 -7.10632 5.61295 0.00469449 9.98056 0.189083 -4.63933 -15.4555 -15.556 2.03217e-016 0 3.88251e-019 0.888494 -3.02924 -1.03296 0.00588836 0.499281 -0.0216071 0.521547 5.23073 0.41219 
50.067 84.7927 128.323 -0.859192 6.39068 2.86561 -0.110178 -14.2851 1.7864 -0.780422 1.63034 0.675793 -0.04864 18.0948 -2.98947 2.52609 -27.4013 -5.27249 -0 0 0 -0 0 0 2.6705e-014 -7.47465e-014 6.21202e-014 86.224 26.3108 -10.5865 -12.1247 -5.53648 21.8515 -0.0468831 6.16765 0.870204 1.51525e-010 -2.00098e-010 -1.28275e-010 2.63345e-010 -3.46378e-010 -2.24965e-010 1.51543e-010 -2.00105e-010 -1.28272e-010 7.73091 5.47488 0.417314 1.51538e-010 -2.00106e-010 -1.28262e-010 2.90554 0.965183 0.102902 1.51548e-010 -2.00105e-010 -1.28265e-010 10.2786 0.731801 0.0259123 1.51522e-010 -2.00104e-010 -1.28272e-010 2.22167 -0.733487 -0.20892 2.6571e-014 -7.47403e-014 6.18717e-014 -73.8609 45.7776 -4.31148 9.45567 -3.81714 -16.7847 0.188964 -12.2917 1.75476 -5.17596e-010 -6.6798e-010 4.57885e-010 -9.01418e-010 -1.16376e-009 7.9076e-010 -5.17596e-010 -6.6798e-010 4.57895e-010 -7.73091 5.47488 -0.417314 -5.17593e-010 -6.67977e-010 4.57885e-010 -2.90554 0.965183 -0.102902 -5.17605e-010 -6.67974e-010 4.57885e-010 -10.2786 0.731801 -0.0259123 -5.17592e-010 -6.67971e-010 4.57879e-010 -2.22167 -0.733487 0.20892 -2.03217e-016 0 -3.88251e-019 3.1096 -6.92536 6.78797 0.00456439 10.2913 0.200946 -6.61091 -18.2922 -19.2237 2.03217e-016 0 3.88251e-019 0.7833 -3.2674 -1.2507 0.00604323 1.06965 -0.0454449 0.523116 5.17926 -0.166245 
50.1263 84.7963 128.331 -0.778515 6.80823 3.12052 -0.272379 -15.2205 1.88902 -0.919232 1.69529 0.709106 0.0922658 19.3704 -3.23002 2.38455 -29.3636 -5.78056 -0 0 0 -0 0 0 1.14569e-014 -2.0417e-014 5.53375e-014 92.6812 28.276 -11.4331 -12.8464 -5.88002 23.4589 -0.0527572 6.35463 0.897013 2.44472e-010 -1.38138e-010 -1.33522e-010 4.23253e-010 -2.38399e-010 -2.33766e-010 2.4449e-010 -1.38144e-010 -1.33519e-010 7.73091 5.47488 0.417314 2.44486e-010 -1.38145e-010 -1.33511e-010 2.90554 0.965183 0.102902 2.44495e-010 -1.38144e-010 -1.33512e-010 10.2786 0.731801 0.0259123 2.44471e-010 -1.38142e-010 -1.33519e-010 2.22167 -0.733487 -0.20892 1.13163e-014 -2.04118e-014 5.5087e-014 -78.6047 49.1251 -4.94725 10.0696 -4.0789 -18.0335 0.233225 -13.2076 1.89237 -5.14261e-010 -4.00612e-010 5.62463e-010 -8.95394e-010 -7.00712e-010 9.70309e-010 -5.14263e-010 -4.00613e-010 5.62471e-010 -7.73091 5.47488 -0.417314 -5.14259e-010 -4.00611e-010 5.62463e-010 -2.90554 0.965183 -0.102902 -5.14269e-010 -4.00608e-010 5.62463e-010 -10.2786 0.731801 -0.0259123 -5.14257e-010 -4.00606e-010 5.62457e-010 -2.22167 -0.733487 0.20892 -2.03217e-016 0 -3.88251e-019 3.03984 -6.81181 7.03507 0.00510879 10.4151 0.205848 -7.40689 -19.2431 -20.5691 2.03217e-016 0 3.88251e-019 0.653594 -3.35517 -1.28614 0.00570472 1.31832 -0.0605531 0.502108 4.52218 -1.85408 
